<svg xmlns="http://www.w3.org/2000/svg" width="720" height="720" viewBox="0 0 720 720" role="img" aria-labelledby="title desc">
  <title id="title">Luci detective companion</title>
  <desc id="desc">A cute original detective companion wearing glasses, a coat, and holding a flashlight.</desc>
  <rect width="720" height="720" rx="44" fill="#080b12"/>
  <path d="M74 602h572" stroke="#25324a" stroke-width="8" stroke-linecap="round"/>
  <path d="M116 118h488v430H116z" fill="#101724" stroke="#2e4264" stroke-width="8"/>
  <path d="M150 156h156M150 198h120M414 156h156M450 198h96" stroke="#2b3854" stroke-width="12" stroke-linecap="round"/>
  <path d="M214 570c13-100 30-177 59-230h174c29 53 46 130 59 230H214z" fill="#26334c" stroke="#78d4c7" stroke-width="8"/>
  <path d="M276 346l44 116 40-86 40 86 44-116" fill="none" stroke="#d7a84d" stroke-width="12" stroke-linecap="round" stroke-linejoin="round"/>
  <path d="M250 262c0-72 48-128 110-128s110 56 110 128c0 73-49 132-110 132s-110-59-110-132z" fill="#f0caa3" stroke="#111827" stroke-width="8"/>
  <path d="M240 266c-16-78 38-150 120-150s136 72 120 150c-28-45-65-69-120-69s-92 24-120 69z" fill="#241a24" stroke="#111827" stroke-width="8"/>
  <circle cx="320" cy="278" r="32" fill="none" stroke="#101724" stroke-width="8"/>
  <circle cx="400" cy="278" r="32" fill="none" stroke="#101724" stroke-width="8"/>
  <path d="M352 278h16" stroke="#101724" stroke-width="8" stroke-linecap="round"/>
  <circle cx="320" cy="278" r="7" fill="#101724"/>
  <circle cx="400" cy="278" r="7" fill="#101724"/>
  <path d="M337 336c17 12 35 12 52 0" stroke="#101724" stroke-width="8" stroke-linecap="round"/>
  <path d="M214 348c-36 20-55 57-58 112" stroke="#26334c" stroke-width="42" stroke-linecap="round"/>
  <path d="M506 348c36 20 55 57 58 112" stroke="#26334c" stroke-width="42" stroke-linecap="round"/>
  <path d="M142 454l110 24" stroke="#d7a84d" stroke-width="18" stroke-linecap="round"/>
  <path d="M120 449l46 10-12 56-46-10z" fill="#d7a84d" stroke="#111827" stroke-width="7"/>
  <path d="M97 479l-54 42" stroke="#f5d78b" stroke-width="10" stroke-linecap="round"/>
  <path d="M479 449h86v102h-86z" fill="#d7a84d" stroke="#111827" stroke-width="8"/>
  <path d="M496 476h52M496 502h38" stroke="#111827" stroke-width="7" stroke-linecap="round"/>
  <path d="M214 570h292v34H214z" fill="#101724" stroke="#78d4c7" stroke-width="8"/>
  <path d="M250 604h220" stroke="#d7a84d" stroke-width="8" stroke-linecap="round"/>
  <circle cx="206" cy="118" r="12" fill="#d7a84d"/>
  <circle cx="558" cy="126" r="8" fill="#78d4c7"/>
  <circle cx="596" cy="506" r="10" fill="#ff6961"/>
</svg>
